<svg width="571" height="518" viewBox="0 0 571 518" fill="none" xmlns="http://www.w3.org/2000/svg">
<path d="M132.781 392.171L176.858 326.935L78.1449 267.859L27.1667 343.308L108.815 392.171H132.781Z" fill="#F0F0F0"/>
<path fill-rule="evenodd" clip-rule="evenodd" d="M85.1459 410.917H193.725V391.185H85.1459V410.917ZM192.315 409.644H86.556V392.458H192.315V409.644Z" fill="#B259D9"/>
<path d="M181.602 407.957C185.386 407.957 188.454 405.086 188.454 401.544C188.454 398.002 185.386 395.131 181.602 395.131C177.818 395.131 174.75 398.002 174.75 401.544C174.75 405.086 177.818 407.957 181.602 407.957Z" fill="#F2798F"/>
<path d="M160.519 407.957C164.303 407.957 167.371 405.086 167.371 401.544C167.371 398.002 164.303 395.131 160.519 395.131C156.734 395.131 153.667 398.002 153.667 401.544C153.667 405.086 156.734 407.957 160.519 407.957Z" fill="#F2798F"/>
<path d="M141.544 407.957C145.328 407.957 148.396 405.086 148.396 401.544C148.396 398.002 145.328 395.131 141.544 395.131C137.759 395.131 134.692 398.002 134.692 401.544C134.692 405.086 137.759 407.957 141.544 407.957Z" fill="#F2798F"/>
<path d="M121.515 407.957C125.299 407.957 128.367 405.086 128.367 401.544C128.367 398.002 125.299 395.131 121.515 395.131C117.73 395.131 114.662 398.002 114.662 401.544C114.662 405.086 117.73 407.957 121.515 407.957Z" fill="#F2798F"/>
<path d="M101.485 407.957C105.27 407.957 108.337 405.086 108.337 401.544C108.337 398.002 105.27 395.131 101.485 395.131C97.7011 395.131 94.6333 398.002 94.6333 401.544C94.6333 405.086 97.7011 407.957 101.485 407.957Z" fill="#F2798F"/>
<path d="M324.929 182.953V132.562H351.85V108.03H220.079V231.355H332.722V219.297C332.722 214.758 334.649 210.404 338.079 207.194C341.508 203.984 346.16 202.181 351.01 202.181H351.85V182.953H324.929Z" fill="#F0F0F0"/>
<rect width="43.0636" height="40.6181" transform="matrix(0.973838 -0.227243 0.257424 0.966299 51.0431 9.96643)" fill="#F0F0F0"/>
<rect x="382.421" y="426.702" width="88.55" height="16.7723" fill="#F2798F"/>
<rect x="359.229" y="341.854" width="129.662" height="15.7857" fill="#F0F0F0"/>
<rect x="0.8125" y="516.483" width="552.383" height="0.986603" fill="#B259D9"/>
<path fill-rule="evenodd" clip-rule="evenodd" d="M349.779 517.47H510.992C521.487 517.459 529.992 509.503 530.004 499.685V219.542C529.992 209.724 521.487 201.768 510.992 201.757H349.779C339.284 201.768 330.779 209.724 330.767 219.542V499.685C330.779 509.503 339.284 517.459 349.779 517.47ZM332.185 219.542C332.196 210.456 340.066 203.094 349.779 203.083H510.992C520.704 203.094 528.575 210.456 528.586 219.542V499.685C528.575 508.77 520.704 516.133 510.992 516.143H349.779C340.066 516.133 332.196 508.77 332.185 499.685V219.542Z" fill="#B259D9"/>
<path fill-rule="evenodd" clip-rule="evenodd" d="M407.721 211.623C407.721 213.802 409.609 215.569 411.937 215.569C414.265 215.567 416.152 213.801 416.154 211.623C416.154 209.443 414.266 207.677 411.937 207.677C409.609 207.677 407.721 209.443 407.721 211.623ZM409.126 211.623C409.126 210.17 410.385 208.992 411.937 208.992C413.489 208.994 414.747 210.171 414.749 211.623C414.749 213.076 413.49 214.254 411.937 214.254C410.385 214.254 409.126 213.076 409.126 211.623Z" fill="#B259D9"/>
<rect x="422.479" y="210.636" width="31.625" height="0.986603" fill="#B259D9"/>
<path d="M518.408 220.502V273.779C486.97 273.778 461.485 249.926 461.483 220.502H518.408Z" fill="#F2798F"/>
<path fill-rule="evenodd" clip-rule="evenodd" d="M343.417 499.711H518.408V220.502H343.417V499.711ZM516.991 498.385H344.834V221.829H516.991V498.385Z" fill="#B259D9"/>
<path opacity="0.1" d="M476.769 270.819C487.539 270.819 496.271 262.647 496.271 252.567C496.271 242.486 487.539 234.315 476.769 234.315C465.998 234.315 457.267 242.486 457.267 252.567C457.267 262.647 465.998 270.819 476.769 270.819Z" fill="black"/>
<path d="M473.606 272.792C484.377 272.792 493.108 264.621 493.108 254.54C493.108 244.46 484.377 236.288 473.606 236.288C462.836 236.288 454.104 244.46 454.104 254.54C454.104 264.621 462.836 272.792 473.606 272.792Z" fill="#F2798F"/>
<rect x="350.796" y="231.355" width="27.4083" height="8.87943" fill="#B259D9"/>
<rect x="365.554" y="320.149" width="27.4083" height="8.87943" fill="#B259D9"/>
<path fill-rule="evenodd" clip-rule="evenodd" d="M366.608 354.68H497.325V337.908H366.608V354.68ZM495.904 353.39H368.029V339.198H495.904V353.39Z" fill="#B259D9"/>
<rect x="359.229" y="392.171" width="129.662" height="15.7857" fill="#F0F0F0"/>
<rect x="365.554" y="369.479" width="27.4083" height="8.87943" fill="#B259D9"/>
<path fill-rule="evenodd" clip-rule="evenodd" d="M366.608 404.997H497.325V388.225H366.608V404.997ZM495.904 403.707H368.029V389.515H495.904V403.707Z" fill="#B259D9"/>
<path fill-rule="evenodd" clip-rule="evenodd" d="M386.637 439.528H476.242V421.769H386.637V439.528ZM474.819 438.26H388.06V423.038H474.819V438.26Z" fill="#B259D9"/>
<path d="M492.054 348.267C492.054 350.972 490.241 353.386 487.522 354.302C484.803 355.217 481.762 354.437 479.921 352.352L479.915 352.346C478.122 350.31 477.844 347.454 479.215 345.149C480.585 342.843 483.324 341.559 486.118 341.912C488.911 342.266 491.188 344.184 491.855 346.748C491.855 346.749 491.856 346.751 491.857 346.752C491.859 346.753 491.86 346.754 491.862 346.754C491.989 347.25 492.053 347.758 492.054 348.267Z" fill="#F2798F"/>
<path opacity="0.1" d="M492.054 347.897C492.054 350.758 490.194 353.311 487.405 354.28C484.615 355.248 481.496 354.423 479.608 352.218L479.601 352.211C479.471 351.687 479.405 351.15 479.404 350.61C479.404 347.75 481.264 345.197 484.054 344.228C486.843 343.26 489.962 344.085 491.85 346.29C491.85 346.292 491.851 346.294 491.852 346.295C491.854 346.296 491.856 346.297 491.857 346.297C491.987 346.821 492.053 347.358 492.054 347.897Z" fill="black"/>
<path d="M488.365 357.64C492.149 357.64 495.217 354.769 495.217 351.227C495.217 347.685 492.149 344.814 488.365 344.814C484.58 344.814 481.512 347.685 481.512 351.227C481.512 354.769 484.58 357.64 488.365 357.64Z" fill="#F2798F"/>
<path d="M492.054 397.598C492.054 400.302 490.241 402.716 487.522 403.632C484.803 404.547 481.762 403.767 479.921 401.682L479.915 401.676C478.122 399.64 477.844 396.784 479.215 394.479C480.585 392.174 483.324 390.889 486.118 391.243C488.911 391.596 491.188 393.515 491.855 396.078C491.855 396.079 491.856 396.081 491.857 396.082C491.859 396.084 491.86 396.084 491.862 396.084C491.989 396.58 492.053 397.088 492.054 397.598Z" fill="#F2798F"/>
<path opacity="0.1" d="M492.054 398.214C492.054 401.075 490.194 403.628 487.405 404.596C484.615 405.565 481.496 404.74 479.608 402.535L479.601 402.528C479.471 402.004 479.405 401.466 479.404 400.927C479.404 398.067 481.264 395.513 484.054 394.545C486.843 393.577 489.962 394.402 491.85 396.607C491.85 396.609 491.851 396.61 491.852 396.612C491.854 396.613 491.856 396.614 491.857 396.614C491.987 397.138 492.053 397.675 492.054 398.214Z" fill="black"/>
<path d="M488.365 407.957C492.149 407.957 495.217 405.086 495.217 401.544C495.217 398.002 492.149 395.131 488.365 395.131C484.58 395.131 481.512 398.002 481.512 401.544C481.512 405.086 484.58 407.957 488.365 407.957Z" fill="#F2798F"/>
<rect x="332.875" y="139.601" width="36.8958" height="34.5311" fill="#F0F0F0"/>
<path fill-rule="evenodd" clip-rule="evenodd" d="M467.808 156.373C467.808 160.732 471.584 164.266 476.242 164.266C480.897 164.261 484.67 160.73 484.675 156.373C484.675 152.014 480.899 148.48 476.242 148.48C471.584 148.48 467.808 152.014 467.808 156.373ZM469.214 156.373C469.214 152.74 472.36 149.796 476.242 149.796C480.121 149.8 483.265 152.742 483.269 156.373C483.269 160.006 480.123 162.95 476.242 162.95C472.36 162.95 469.214 160.006 469.214 156.373Z" fill="#B259D9"/>
<path fill-rule="evenodd" clip-rule="evenodd" d="M271.733 275.752H289.654V258.98H271.733V275.752ZM288.276 274.462H273.112V260.27H288.276V274.462Z" fill="#B259D9"/>
<path fill-rule="evenodd" clip-rule="evenodd" d="M552.142 404.997H570.062V388.225H552.142V404.997ZM568.684 403.707H553.52V389.515H568.684V403.707Z" fill="#B259D9"/>
<path d="M206.375 289.47L209.535 291.074L220.288 296.536L237.647 305.35L247.764 287.661C249.688 284.304 250.116 280.364 248.955 276.709C247.793 273.054 245.136 269.985 241.571 268.178C233.83 264.239 224.276 265.46 217.928 271.201L217.923 271.206C216.401 272.584 215.117 274.177 214.116 275.928L206.375 289.47Z" fill="#2F2E41"/>
<path d="M253.813 467.232L251.777 489.806L244.143 490.832L239.054 465.18L253.813 467.232Z" fill="#FFB8B8"/>
<path d="M241.533 491.442C241.533 491.442 251.628 486.379 253.753 490.429C253.753 490.429 252.159 502.58 258.534 504.099C264.91 505.618 267.566 516.251 258.534 517.263C249.503 518.276 243.659 515.238 240.471 515.238C237.283 515.238 240.471 504.606 240.471 504.606L241.533 491.442Z" fill="#2F2E41"/>
<path d="M189.508 467.232L191.544 489.806L199.178 490.832L204.267 465.18L189.508 467.232Z" fill="#FFB8B8"/>
<path d="M202.842 491.442C202.842 491.442 192.747 486.379 190.622 490.429C190.622 490.429 192.216 502.58 185.841 504.099C179.466 505.618 176.809 516.251 185.841 517.263C194.872 518.276 200.717 515.238 203.904 515.238C207.092 515.238 203.904 504.606 203.904 504.606L202.842 491.442Z" fill="#2F2E41"/>
<path d="M232.202 293.511C240.062 293.511 246.433 287.548 246.433 280.192C246.433 272.836 240.062 266.873 232.202 266.873C224.342 266.873 217.971 272.836 217.971 280.192C217.971 287.548 224.342 293.511 232.202 293.511Z" fill="#FFB8B8"/>
<path d="M189.508 305.153L200.571 321.623L213.741 320.625L235.341 322.122C235.341 322.122 237.379 318.259 239.044 314.501C239.956 312.624 240.657 310.662 241.136 308.647C241.662 305.153 234.287 301.659 234.287 301.659C234.287 301.659 233.997 301.609 233.513 301.499C232.87 301.355 231.879 301.115 230.794 300.766C228.345 299.977 225.4 298.64 224.804 296.668C223.751 293.174 231.653 288.183 231.653 288.183L222.17 279.698C222.17 279.698 213.747 290.784 203.516 293.309C202.923 293.458 202.321 293.574 201.714 293.658C201.683 293.663 201.657 293.668 201.625 293.673C190.562 295.171 189.508 305.153 189.508 305.153Z" fill="#FFB8B8"/>
<path d="M195.058 301.404L188.957 305.881C188.957 305.881 183.964 327.273 185.628 333.243C187.292 339.213 185.074 344.686 185.074 345.681C185.074 346.676 180.082 383.988 180.082 383.988C180.082 383.988 170.098 403.887 180.636 401.897C191.175 399.907 187.292 380.008 187.292 380.008L200.05 345.183V315.831L195.058 301.404Z" fill="#FFB8B8"/>
<path d="M236.994 305.35L241.307 308.31L243.463 349.743L259.637 385.257C259.637 385.257 271.497 402.521 263.95 403.014C256.402 403.507 251.55 385.257 251.55 385.257L236.994 351.223L234.838 318.175L236.994 305.35Z" fill="#FFB8B8"/>
<path d="M210.312 307.323C210.312 307.323 220.945 314.306 237.958 311.812C237.958 311.812 242.743 320.79 240.085 325.778C237.426 330.766 243.275 342.736 244.338 344.233C245.401 345.729 257.63 376.653 261.883 410.071C266.136 443.488 277.833 466.432 267.731 469.424C257.63 472.417 236.895 475.909 234.768 472.916C232.641 469.923 229.451 395.606 229.451 395.606L223.603 424.036C223.603 424.036 231.578 472.417 225.73 473.415C219.882 474.412 183.197 471.42 184.26 465.434C185.324 459.449 195.957 428.026 195.957 428.026C195.957 428.026 195.425 365.181 206.058 353.21C206.058 353.21 210.312 346.726 204.463 338.247C198.615 329.768 199.147 316.301 199.147 316.301C199.147 316.301 203.4 316.301 210.312 307.323Z" fill="#2F2E41"/>
<path d="M201.104 293.859L209.622 312.256L211.646 311.263L202.835 293.511L201.104 293.859Z" fill="#2F2E41"/>
<path d="M230.621 301.404L237.422 315.216L239.054 315.082L238.499 312.731L233.4 302.134C232.743 301.99 231.73 301.752 230.621 301.404Z" fill="#2F2E41"/>
<path d="M208.88 290.574C209.923 293.796 212.876 296.104 216.373 296.431C219.87 296.758 223.231 295.04 224.901 292.072C218.19 283.646 223.946 278.353 234.848 274.349C236.527 271.356 236.156 267.685 233.909 265.057C227.823 264.31 221.711 266.242 217.278 270.315L217.273 270.32L209.528 284.115C208.413 286.096 208.18 288.425 208.88 290.574Z" fill="#2F2E41"/>
<path d="M224.823 284.632C225.696 284.632 226.404 283.306 226.404 281.672C226.404 280.037 225.696 278.712 224.823 278.712C223.95 278.712 223.242 280.037 223.242 281.672C223.242 283.306 223.95 284.632 224.823 284.632Z" fill="#FFB8B8"/>
<path d="M230.621 276.858L246.656 283.645L249.596 277.586C249.089 275.371 248.029 273.3 246.502 271.542L235.465 266.873L230.621 276.858Z" fill="#2F2E41"/>
<path d="M269.098 409.93C272.882 409.93 275.95 407.059 275.95 403.517C275.95 399.975 272.882 397.104 269.098 397.104C265.314 397.104 262.246 399.975 262.246 403.517C262.246 407.059 265.314 409.93 269.098 409.93Z" fill="#F2798F"/>
<path d="M41.3979 449.394C44.0178 449.394 46.1417 447.406 46.1417 444.954C46.1417 442.502 44.0178 440.515 41.3979 440.515C38.778 440.515 36.6542 442.502 36.6542 444.954C36.6542 447.406 38.778 449.394 41.3979 449.394Z" fill="#FF6584"/>
<rect x="63.0084" y="468.14" width="1.05417" height="49.3302" fill="#B259D9"/>
<path d="M64.0625 474.059C68.1379 474.059 71.4417 470.967 71.4417 467.153C71.4417 463.339 68.1379 460.247 64.0625 460.247C59.9871 460.247 56.6833 463.339 56.6833 467.153C56.6833 470.967 59.9871 474.059 64.0625 474.059Z" fill="#B259D9"/>
<path d="M63.0083 497.738C63.0083 497.738 61.9787 476.75 40.8708 479.19L63.0083 497.738Z" fill="#B259D9"/>
</svg>
