<!DOCTYPE svg PUBLIC "-//W3C//DTD SVG 1.1//EN" "http://www.w3.org/Graphics/SVG/1.1/DTD/svg11.dtd">
<!-- Uploaded to: SVG Repo, www.svgrepo.com, Transformed by: SVG Repo Mixer Tools -->
<svg version="1.1" id="Layer_1" xmlns="http://www.w3.org/2000/svg" xmlns:xlink="http://www.w3.org/1999/xlink" viewBox="-51.2 -51.2 614.40 614.40" xml:space="preserve" width="103px" height="103px" fill="#000000">
<g id="SVGRepo_bgCarrier" stroke-width="0" transform="translate(0,0), scale(1)">
<rect x="-51.2" y="-51.2" width="614.40" height="614.40" rx="307.2" fill="#B562D9" strokewidth="0"/>
</g>
<g id="SVGRepo_tracerCarrier" stroke-linecap="round" stroke-linejoin="round" stroke="#CCCCCC" stroke-width="1.024"/>
<g id="SVGRepo_iconCarrier"> <path style="fill:#2D2D2D;" d="M384,512H128c-8.448,0-15.36-6.912-15.36-15.36V15.36C112.64,6.912,119.552,0,128,0h256 c8.448,0,15.36,6.912,15.36,15.36v481.28C399.36,505.088,392.448,512,384,512z"/> <rect x="128" y="40.96" style="fill:#E0E0E0;" width="256" height="409.6"/> <g> <path style="fill:#999999;" d="M286.72,25.76h-61.44c-2.816,0-5.12-2.304-5.12-5.12l0,0c0-2.816,2.304-5.12,5.12-5.12h61.44 c2.816,0,5.12,2.304,5.12,5.12l0,0C291.84,23.456,289.536,25.76,286.72,25.76z"/> <path style="fill:#999999;" d="M286.72,481.28h-61.44c-2.816,0-5.12-2.304-5.12-5.12l0,0c0-2.816,2.304-5.12,5.12-5.12h61.44 c2.816,0,5.12,2.304,5.12,5.12l0,0C291.84,478.976,289.536,481.28,286.72,481.28z"/> </g> <rect x="153.6" y="314.56" style="fill:#2D2D2D;" width="204.8" height="10.24"/> <g> <rect x="153.6" y="355.52" style="fill:#999999;" width="204.8" height="10.24"/> <rect x="153.6" y="376" style="fill:#999999;" width="204.8" height="10.24"/> <rect x="153.6" y="396.512" style="fill:#999999;" width="204.8" height="10.24"/> </g> <path style="fill:#FFFFFF;" d="M174.08,248.808c-9.088,0-16.48-7.392-16.48-16.48V123.256c0-9.088,7.392-16.488,16.48-16.488h163.84 c9.088,0,16.48,7.4,16.48,16.488v109.08c0,9.088-7.392,16.48-16.48,16.48H174.08V248.808z"/> <g> <path style="fill:#DB2B42;" d="M337.92,110.776c6.88,0,12.48,5.6,12.48,12.48v109.08c0,6.88-5.6,12.48-12.48,12.48H174.08 c-6.88,0-12.48-5.6-12.48-12.48v-109.08c0-6.88,5.6-12.48,12.48-12.48H337.92 M337.92,102.776H174.08 c-11.264,0-20.48,9.216-20.48,20.48v109.08c0,11.264,9.216,20.48,20.48,20.48h163.84c11.264,0,20.48-9.216,20.48-20.48v-109.08 C358.4,111.992,349.184,102.776,337.92,102.776L337.92,102.776z"/> <polygon style="fill:#DB2B42;" points="234.24,144.536 291.84,177.792 234.24,211.048 "/> </g> </g>
</svg>